<svg width="23" height="30" viewBox="0 0 23 30" fill="none" xmlns="http://www.w3.org/2000/svg">
<path d="M22.2644 29.1862H0.735595C0.477351 29.1862 0.267578 28.9764 0.267578 28.7182V2.28247C0.267578 2.02423 0.477351 1.81445 0.735595 1.81445H22.2644C22.5226 1.81445 22.7324 2.02423 22.7324 2.28247V28.7182C22.7324 28.9764 22.5226 29.1862 22.2644 29.1862ZM1.20361 28.2502H21.7963V2.75049H1.20361V28.2502Z" fill="#010311"/>
<path d="M11.5004 4.68996C11.2422 4.68996 11.0324 4.48019 11.0324 4.22194V0.637206C11.0324 0.378962 11.2422 0.169189 11.5004 0.169189C11.7587 0.169189 11.9684 0.378962 11.9684 0.637206V4.22194C11.9684 4.4806 11.7587 4.68996 11.5004 4.68996Z" fill="#010311"/>
<path d="M5.51672 4.68996C5.25848 4.68996 5.04871 4.48019 5.04871 4.22194V0.637206C5.04871 0.378962 5.25848 0.169189 5.51672 0.169189C5.77497 0.169189 5.98474 0.378962 5.98474 0.637206V4.22194C5.98474 4.4806 5.77497 4.68996 5.51672 4.68996Z" fill="#010311"/>
<path d="M17.4825 4.68996C17.2242 4.68996 17.0145 4.48019 17.0145 4.22194V0.637206C17.0145 0.378962 17.2242 0.169189 17.4825 0.169189C17.7407 0.169189 17.9505 0.378962 17.9505 0.637206V4.22194C17.9505 4.4806 17.7411 4.68996 17.4825 4.68996Z" fill="#010311"/>
<path d="M5.48967 11.1144C5.38813 11.1144 5.28638 11.0816 5.20072 11.0143L3.86914 9.96759C3.66605 9.80775 3.63075 9.51357 3.79058 9.31049C3.95042 9.1072 4.24439 9.07231 4.44789 9.23193L5.42318 9.99851L7.78894 7.18394C7.95525 6.98629 8.25069 6.96038 8.44833 7.1269C8.6464 7.29301 8.6719 7.58844 8.50537 7.7863L5.84832 10.9475C5.75555 11.0572 5.6233 11.1145 5.48958 11.1145L5.48967 11.1144Z" fill="#010311"/>
<path d="M18.8422 8.25488H11.761C11.5027 8.25488 11.293 8.04511 11.293 7.78686C11.293 7.52862 11.5027 7.31885 11.761 7.31885H18.8422C19.1004 7.31885 19.3102 7.52862 19.3102 7.78686C19.3102 8.04532 19.1007 8.25488 18.8422 8.25488Z" fill="#010311"/>
<path d="M16.3494 10.65H11.761C11.5027 10.65 11.293 10.4402 11.293 10.182C11.293 9.92376 11.5027 9.71399 11.761 9.71399H16.3492C16.6074 9.71399 16.8172 9.92376 16.8172 10.182C16.8172 10.4402 16.6077 10.65 16.3494 10.65H16.3494Z" fill="#010311"/>
<path d="M5.48967 25.4133C5.38813 25.4133 5.28638 25.3805 5.20072 25.3132L3.86914 24.2665C3.66605 24.1066 3.63075 23.8127 3.79058 23.6092C3.95041 23.4057 4.24439 23.3708 4.44789 23.5306L5.42318 24.2972L7.78894 21.4826C7.95525 21.2845 8.25069 21.2595 8.44833 21.4256C8.6464 21.5919 8.6719 21.8873 8.50537 22.085L5.84811 25.2464C5.75555 25.3565 5.62329 25.4133 5.48958 25.4133L5.48967 25.4133Z" fill="#010311"/>
<path d="M18.8422 22.5537H11.761C11.5027 22.5537 11.293 22.3439 11.293 22.0857C11.293 21.8274 11.5027 21.6177 11.761 21.6177H18.8422C19.1004 21.6177 19.3102 21.8274 19.3102 22.0857C19.3102 22.3439 19.1007 22.5537 18.8422 22.5537Z" fill="#010311"/>
<path d="M16.3494 24.9495H11.761C11.5027 24.9495 11.293 24.7397 11.293 24.4814C11.293 24.2232 11.5027 24.0134 11.761 24.0134H16.3492C16.6074 24.0134 16.8172 24.2232 16.8172 24.4814C16.8172 24.7399 16.6077 24.9495 16.3494 24.9495H16.3494Z" fill="#010311"/>
<path d="M5.48967 18.2641C5.38813 18.2641 5.28638 18.2313 5.20072 18.1641L3.86914 17.1173C3.66605 16.9575 3.63075 16.6635 3.79058 16.46C3.95042 16.2565 4.24439 16.2218 4.44789 16.3814L5.42318 17.148L7.78894 14.3334C7.95525 14.1358 8.25069 14.1097 8.44833 14.2764C8.6464 14.4425 8.6719 14.7379 8.50537 14.9356L5.84811 18.097C5.75555 18.2073 5.62329 18.2641 5.48958 18.2641L5.48967 18.2641Z" fill="#010311"/>
<path d="M18.8422 15.4047H11.761C11.5027 15.4047 11.293 15.1949 11.293 14.9366C11.293 14.6784 11.5027 14.4686 11.761 14.4686H18.8422C19.1004 14.4686 19.3102 14.6784 19.3102 14.9366C19.3102 15.1949 19.1007 15.4047 18.8422 15.4047Z" fill="#010311"/>
<path d="M16.3494 17.7999H11.761C11.5027 17.7999 11.293 17.5902 11.293 17.3319C11.293 17.0737 11.5027 16.8639 11.761 16.8639H16.3492C16.6074 16.8639 16.8172 17.0737 16.8172 17.3319C16.8172 17.5902 16.6077 17.7999 16.3494 17.7999H16.3494Z" fill="#010311"/>
</svg>
