<svg width="129" height="63" viewBox="0 0 129 63" fill="none" xmlns="http://www.w3.org/2000/svg">
<path d="M129 0C128.803 7.93507 127.142 15.762 124.103 23.0741C117.505 38.9769 104.967 51.5675 89.2428 58.0807C73.4011 64.6398 55.6638 64.6398 39.8221 58.0807C32.0024 54.8536 24.8841 50.0933 18.8733 44.0715C7.22331 32.4068 0.460877 16.6156 0 0H32.7202C33.0558 6.03353 35.0598 11.8483 38.5018 16.7756C41.9438 21.703 46.6839 25.5429 52.1772 27.8537C59.9963 31.0788 68.7442 31.0788 76.5633 27.8537C80.4276 26.2636 83.9435 23.9109 86.908 20.9315C92.4668 15.3762 95.7857 7.91194 96.2149 0H129Z" fill="#00BABA"/>
</svg>
