<svg width="166" height="39" viewBox="0 0 166 39" fill="none" xmlns="http://www.w3.org/2000/svg">
<path d="M74.3638 24.7351C72.7995 24.779 71.2493 24.429 69.8556 23.7172C68.6297 23.055 67.6279 22.044 66.9768 20.8122C66.2661 19.4182 65.9161 17.8682 65.959 16.304C65.9138 14.7298 66.2637 13.1694 66.9768 11.7652C67.6344 10.5254 68.66 9.51974 69.9124 8.88644C71.3684 8.1744 72.9751 7.82519 74.5953 7.86859C77.4435 7.86859 79.5083 8.68258 80.7897 10.3105C82.1003 11.9225 82.7468 14.1416 82.5371 16.9724H69.5629L69.5935 13.8621H77.793C77.7727 13.5112 77.6734 13.1694 77.5024 12.8623C77.3314 12.5551 77.0933 12.2906 76.8057 12.0885C76.1597 11.6079 75.3694 11.3614 74.5647 11.3895C73.1727 11.3895 72.1534 11.8264 71.5068 12.7001C70.8603 13.5738 70.5225 14.8421 70.4934 16.505C70.4855 17.2923 70.634 18.0733 70.9302 18.8028C71.1968 19.4701 71.6391 20.0528 72.2102 20.489C72.8458 20.9143 73.5994 21.1284 74.3638 21.1005C75.1814 21.1282 75.9864 20.894 76.6616 20.4322C77.3288 19.8764 77.7979 19.1192 77.9983 18.2742H82.5327C82.3338 20.1769 81.3918 21.9242 79.9117 23.1362C78.4992 24.2021 76.6499 24.7351 74.3638 24.7351Z" fill="white"/>
<path d="M0.843277 15.1684C0.47316 14.481 0.292257 13.7076 0.319068 12.9274C0.299163 11.963 0.607194 11.0204 1.19275 10.2539C1.82347 9.46194 2.65889 8.85766 3.60849 8.50654C4.7573 8.06303 5.98119 7.84644 7.21244 7.86875C9.28889 7.86875 10.9664 8.35365 12.2449 9.32344C12.8851 9.80672 13.4101 10.4262 13.7818 11.1371C14.1535 11.848 14.3626 12.6325 14.3941 13.4341H10.2092C10.2058 13.0987 10.1252 12.7686 9.97373 12.4694C9.82222 12.1701 9.60383 11.9098 9.33549 11.7086C8.71065 11.3152 7.9807 11.1216 7.24302 11.1538C6.64711 11.1252 6.05438 11.2564 5.52623 11.5339C5.32393 11.6433 5.15647 11.8075 5.04294 12.0075C4.9294 12.2075 4.87435 12.4355 4.88407 12.6653C4.87914 12.8574 4.92502 13.0475 5.01706 13.2162C5.1091 13.385 5.24406 13.5264 5.40828 13.6263C5.85641 13.8696 6.33763 14.0462 6.83675 14.1505C7.41775 14.286 8.05554 14.4126 8.75449 14.5262C9.47251 14.6446 10.1818 14.8109 10.8775 15.0242C11.551 15.2059 12.1963 15.4793 12.7953 15.8368C13.2805 16.1388 13.7 16.5354 14.0287 17.003C14.3574 17.4705 14.5886 17.9995 14.7086 18.5583H8.70207C8.55354 18.5117 8.39628 18.468 8.23028 18.4272C7.64928 18.27 7.00712 18.1258 6.31254 17.9904C5.61796 17.855 4.90591 17.6496 4.18949 17.4356C3.51676 17.2341 2.87125 16.951 2.26739 16.5925C1.69165 16.2309 1.20487 15.7441 0.843277 15.1684Z" fill="white"/>
<path d="M14.796 19.9036C14.7496 20.595 14.5451 21.2665 14.1982 21.8663C13.8513 22.4662 13.3714 22.9783 12.7953 23.3634C11.5139 24.2924 9.78833 24.7569 7.61868 24.7569C6.25545 24.7853 4.90047 24.5387 3.63468 24.0318C2.56462 23.5844 1.63929 22.8496 0.961207 21.9087C0.324834 20.8787 -0.00825747 19.6902 0.000155513 18.4795H4.22442C4.18645 18.8918 4.24261 19.3074 4.38866 19.6948C4.53471 20.0822 4.76683 20.4315 5.06752 20.7161C5.71253 21.1356 6.45112 21.3894 7.21774 21.4549C7.98436 21.5204 8.75531 21.3957 9.46216 21.0918C9.67588 20.996 9.85771 20.841 9.98621 20.6451C10.1147 20.4493 10.1845 20.2208 10.1873 19.9866C10.1897 19.9663 10.1897 19.9458 10.1873 19.9254L14.796 19.9036Z" fill="white"/>
<path d="M38.4597 14.6748V18.6064C38.679 17.973 38.7869 17.3065 38.7786 16.6363C38.7867 15.9689 38.6788 15.3052 38.4597 14.6748ZM38.8092 10.4855C38.7161 10.3683 38.617 10.256 38.5122 10.1492C37.991 9.6017 37.3716 9.15713 36.6862 8.83862C35.7991 8.40317 34.8217 8.18316 33.8336 8.19647C32.5048 8.17723 31.2033 8.57439 30.1117 9.33226C29.0072 10.1118 28.1249 11.1658 27.5518 12.3902C26.9194 13.7245 26.6011 15.186 26.6213 16.6625C26.602 18.1304 26.9204 19.5832 27.5518 20.9086C28.1249 22.133 29.0072 23.1869 30.1117 23.9665C31.1994 24.7266 32.4401 24.7528 33.8336 24.7528C34.882 24.7528 35.83 24.8969 36.6862 24.4907C37.3773 24.1543 38.0006 23.6938 38.5253 23.1321C38.6257 23.0273 38.7175 22.918 38.8092 22.8045C39.3722 22.1233 39.7606 21.3151 39.9406 20.4499V12.8401C39.7682 11.9723 39.379 11.1623 38.8092 10.4855ZM36.9483 20.7426C36.3711 21.1467 35.6822 21.361 34.9776 21.3555C34.273 21.35 33.5876 21.1251 33.0167 20.712C32.4246 20.2757 31.9539 19.6953 31.6494 19.0258C31.3143 18.2758 31.1458 17.462 31.1557 16.6406C31.1413 15.8202 31.31 15.0069 31.6494 14.2598C31.9474 13.578 32.4188 12.986 33.0167 12.543C33.5881 12.1179 34.2834 11.8923 34.9956 11.9009C35.6986 11.8905 36.3848 12.1167 36.9439 12.543C37.5472 12.9679 38.0169 13.5558 38.2981 14.238C38.3653 14.3799 38.4237 14.5257 38.4728 14.6748V18.6064C38.4234 18.7554 38.365 18.9013 38.2981 19.0433C38.0078 19.7199 37.5417 20.3067 36.9483 20.7426ZM38.6039 7.89941L38.5122 10.1404L38.4597 11.4509V21.8259L38.5253 23.1365L38.6039 24.7572H42.9461V7.90815L38.6039 7.89941Z" fill="white"/>
<path d="M88.6136 10.28L88.4956 7.86865H84.1272V24.7351H88.666V11.2935L88.6136 10.28ZM97.7873 9.63349C97.2152 9.09925 96.5434 8.68305 95.8103 8.4087C95.0772 8.13436 94.2972 8.00725 93.515 8.03465C92.6893 8.02529 91.8694 8.17356 91.0992 8.47149C90.3609 8.77601 89.6888 9.2211 89.1203 9.78202C88.9543 9.93928 88.7927 10.1053 88.6311 10.2844C88.191 10.7858 87.8004 11.3286 87.4647 11.9051L87.9277 15.7143C88.1529 15.2471 88.4052 14.7934 88.6835 14.3558C89.0665 13.7196 89.559 13.1561 90.1382 12.6914C90.843 12.1346 91.7125 11.8273 92.6107 11.8177C92.9359 11.7944 93.2621 11.8451 93.5648 11.9662C93.8675 12.0873 94.1387 12.2755 94.3581 12.5167C94.7628 13.0165 94.9696 13.6478 94.9391 14.2902V16.4744H99.456V14.2902C99.456 12.2342 98.894 10.6819 97.7698 9.63349H97.7873Z" fill="white"/>
<path d="M62.438 26.9456C62.4114 27.9972 62.1877 29.0344 61.7784 30.0035C60.8895 32.111 59.2005 33.7795 57.0823 34.6427C54.9483 35.512 52.5589 35.512 50.4249 34.6427C49.3715 34.215 48.4126 33.5842 47.6028 32.7861C46.0335 31.2403 45.1225 29.1475 45.0604 26.9456H49.4682C49.5134 27.7452 49.7833 28.5158 50.247 29.1688C50.7107 29.8217 51.3492 30.3306 52.0892 30.6369C53.1425 31.0643 54.321 31.0643 55.3743 30.6369C55.8948 30.4261 56.3685 30.1143 56.7678 29.7195C57.5166 28.9833 57.9637 27.9941 58.0215 26.9456H62.438Z" fill="white"/>
<path d="M61.8264 14.3689C61.4098 12.5352 60.3829 10.8974 58.9139 9.72367C57.4449 8.54989 55.6208 7.90971 53.7405 7.90796C52.0989 7.90796 50.4942 8.39475 49.1293 9.30676C47.7643 10.2188 46.7005 11.5151 46.0723 13.0317C45.4441 14.5483 45.2797 16.2172 45.6 17.8272C45.9202 19.4373 46.7107 20.9162 47.8715 22.0769C49.0323 23.2377 50.5112 24.0282 52.1212 24.3485C53.7313 24.6687 55.4001 24.5044 56.9168 23.8762C58.4334 23.248 59.7297 22.1841 60.6417 20.8192C61.5537 19.4543 62.0405 17.8495 62.0405 16.208C62.0397 15.5888 61.9679 14.9717 61.8264 14.3689ZM53.7405 19.6852C53.0493 19.6852 52.3736 19.4803 51.7989 19.0963C51.2242 18.7122 50.7763 18.1664 50.5118 17.5279C50.2473 16.8893 50.1781 16.1866 50.3129 15.5087C50.4478 14.8308 50.7806 14.2081 51.2693 13.7193C51.7581 13.2306 52.3808 12.8977 53.0587 12.7629C53.7366 12.6281 54.4393 12.6973 55.0779 12.9618C55.7164 13.2263 56.2623 13.6742 56.6463 14.2489C57.0303 14.8236 57.2352 15.4993 57.2352 16.1905C57.2352 17.1173 56.867 18.0062 56.2116 18.6616C55.5563 19.317 54.6674 19.6852 53.7405 19.6852Z" fill="white"/>
<path d="M63.7176 8.29611L58.0574 12.4707L60.2925 15.5012L65.9527 11.3266L63.7176 8.29611Z" fill="white"/>
<path d="M0 27.2949L42.5136 27.2949" stroke="white" stroke-width="0.733895"/>
<path d="M64.9455 27.6533H95.0876" stroke="white" stroke-width="0.733895"/>
<path fill-rule="evenodd" clip-rule="evenodd" d="M17.3282 3.70557V24.674H21.6966V11.5687H26.5019V8.07399H21.6966V3.70557H17.3282Z" fill="white"/>
</svg>
