<svg width="153" height="50" viewBox="0 0 153 50" fill="none" xmlns="http://www.w3.org/2000/svg">
<rect opacity="0.9" x="7.95032" y="6.2865" width="143.773" height="42.62" fill="white" stroke="black" stroke-width="0.552974"/>
<rect x="1.27649" y="1.27649" width="143.773" height="42.62" fill="white" stroke="black" stroke-width="0.552974"/>
<path d="M26.0051 37.3104C25.6126 37.3104 25.2228 37.2075 24.8786 37.0093L21.2931 34.8865C20.7575 34.587 21.0188 34.4811 21.1955 34.4201C21.9095 34.17 22.0544 34.1136 22.8166 33.6807C22.8967 33.635 23.0016 33.6512 23.0836 33.6996L25.8382 35.3341C25.9376 35.3879 26.0788 35.3879 26.171 35.3341L36.9113 29.1346C37.0108 29.0781 37.0753 28.9625 37.0753 28.8442V16.4505C37.0753 16.3268 37.0108 16.2166 36.9092 16.1547L26.1731 9.96055C26.0737 9.90141 25.9419 9.90141 25.8425 9.96055L15.1086 16.1547C15.0045 16.2139 14.9384 16.3295 14.9384 16.4478V28.8415C14.9384 28.9598 15.0029 29.0727 15.1051 29.1292L18.0462 30.8283C19.6432 31.6268 20.6191 30.6858 20.6191 29.7395V17.507C20.6191 17.3323 20.7562 17.1979 20.9309 17.1979H22.2913C22.4607 17.1979 22.6005 17.3323 22.6005 17.507V29.7449C22.6005 31.8741 21.439 33.0973 19.42 33.0973C18.799 33.0973 18.3097 33.0973 16.944 32.4252L14.1265 30.8014C13.4302 30.3981 13 29.6454 13 28.8415V16.4478C13 15.6412 13.4302 14.8885 14.1265 14.4906L24.8776 8.28834C25.5578 7.90389 26.4611 7.90389 27.1359 8.28834L37.8735 14.4933C38.5672 14.8939 39 15.6439 39 16.4505V28.8442C39 29.6481 38.5672 30.3981 37.8735 30.8014L27.1359 37.0037C26.7917 37.2026 26.4019 37.3048 26.004 37.3048" fill="#689F63"/>
<path d="M29.3231 28.7705C24.6237 28.7705 23.6383 26.6133 23.6383 24.8039C23.6383 24.6319 23.7771 24.4948 23.9494 24.4948H25.3366C25.4899 24.4948 25.6189 24.6063 25.6431 24.7577C25.8528 26.1713 26.4765 26.8843 29.3182 26.8843C31.5819 26.8843 32.5444 26.3729 32.5444 25.1725C32.5444 24.4816 32.2701 23.9681 28.7536 23.624C25.8125 23.3336 23.9951 22.6857 23.9951 20.3333C23.9951 18.1664 25.8232 16.876 28.8854 16.876C32.3239 16.876 34.0284 18.0696 34.2435 20.6344C34.2515 20.7231 34.2193 20.8092 34.1601 20.8737C34.101 20.9355 34.0176 20.9732 33.9316 20.9732H32.5363C32.3911 20.9732 32.2648 20.871 32.2352 20.7312C31.8991 19.2445 31.0872 18.7686 28.88 18.7686C26.4093 18.7686 26.1217 19.6289 26.1217 20.2742C26.1217 21.0565 26.4604 21.285 29.7941 21.7259C33.0955 22.1642 34.6629 22.7825 34.6629 25.1026C34.6629 27.4416 32.711 28.7831 29.3075 28.7831" fill="#689F63"/>
<path d="M1 44.0872L7.67382 49.1832" stroke="black" stroke-width="0.667382" stroke-linejoin="bevel"/>
<path d="M145.154 44.0872L151.828 49.1832" stroke="black" stroke-width="0.667382" stroke-linejoin="bevel"/>
<path d="M145.154 1L151.828 6.09599" stroke="black" stroke-width="0.667382"/>
<path d="M53.98 20.1C53.4667 20.1 52.9933 20.0133 52.56 19.84C52.1333 19.66 51.76 19.41 51.44 19.09C51.1267 18.7633 50.8833 18.38 50.71 17.94C50.5367 17.4933 50.45 17.0067 50.45 16.48C50.45 15.9667 50.54 15.4933 50.72 15.06C50.9 14.62 51.1533 14.24 51.48 13.92C51.8067 13.5933 52.19 13.34 52.63 13.16C53.07 12.98 53.5467 12.89 54.06 12.89C54.3933 12.89 54.72 12.9367 55.04 13.03C55.3667 13.1167 55.6633 13.2467 55.93 13.42C56.2033 13.5933 56.4367 13.8 56.63 14.04L55.69 15.08C55.53 14.92 55.3633 14.7833 55.19 14.67C55.0233 14.55 54.8433 14.46 54.65 14.4C54.4633 14.3333 54.2633 14.3 54.05 14.3C53.7633 14.3 53.4933 14.3533 53.24 14.46C52.9933 14.5667 52.7767 14.7167 52.59 14.91C52.4033 15.0967 52.2533 15.3267 52.14 15.6C52.0333 15.8667 51.98 16.1633 51.98 16.49C51.98 16.8233 52.0333 17.1267 52.14 17.4C52.2467 17.6667 52.3967 17.8967 52.59 18.09C52.7833 18.2767 53.0133 18.4233 53.28 18.53C53.5533 18.63 53.8533 18.68 54.18 18.68C54.3933 18.68 54.6 18.65 54.8 18.59C55 18.53 55.1833 18.4467 55.35 18.34C55.5233 18.2333 55.6767 18.11 55.81 17.97L56.54 19.14C56.38 19.32 56.1633 19.4833 55.89 19.63C55.6233 19.7767 55.3233 19.8933 54.99 19.98C54.6567 20.06 54.32 20.1 53.98 20.1ZM60.1145 20.1C59.5412 20.1 59.0412 19.9833 58.6145 19.75C58.1879 19.5167 57.8545 19.1967 57.6145 18.79C57.3745 18.3833 57.2545 17.9167 57.2545 17.39C57.2545 16.9833 57.3212 16.61 57.4545 16.27C57.5879 15.93 57.7745 15.6367 58.0145 15.39C58.2545 15.1367 58.5379 14.9433 58.8645 14.81C59.1979 14.67 59.5579 14.6 59.9445 14.6C60.3045 14.6 60.6379 14.6667 60.9445 14.8C61.2512 14.9267 61.5145 15.11 61.7345 15.35C61.9612 15.5833 62.1345 15.86 62.2545 16.18C62.3745 16.5 62.4279 16.85 62.4145 17.23L62.4045 17.67H58.1545L57.9245 16.8H61.2345L61.0745 16.98V16.76C61.0612 16.58 61.0012 16.4167 60.8945 16.27C60.7945 16.1233 60.6645 16.01 60.5045 15.93C60.3445 15.85 60.1645 15.81 59.9645 15.81C59.6712 15.81 59.4212 15.8667 59.2145 15.98C59.0145 16.0933 58.8612 16.26 58.7545 16.48C58.6479 16.7 58.5945 16.9667 58.5945 17.28C58.5945 17.6 58.6612 17.8767 58.7945 18.11C58.9345 18.3433 59.1279 18.5267 59.3745 18.66C59.6279 18.7867 59.9245 18.85 60.2645 18.85C60.4979 18.85 60.7112 18.8133 60.9045 18.74C61.0979 18.6667 61.3045 18.54 61.5245 18.36L62.2045 19.31C62.0112 19.4833 61.7979 19.63 61.5645 19.75C61.3312 19.8633 61.0912 19.95 60.8445 20.01C60.5979 20.07 60.3545 20.1 60.1145 20.1ZM63.4639 20V14.71H64.8339L64.8839 16.41L64.6439 16.06C64.7239 15.7867 64.8539 15.54 65.0339 15.32C65.2139 15.0933 65.4239 14.9167 65.6639 14.79C65.9106 14.6633 66.1672 14.6 66.4339 14.6C66.5472 14.6 66.6572 14.61 66.7639 14.63C66.8706 14.65 66.9606 14.6733 67.0339 14.7L66.6539 16.26C66.5739 16.22 66.4772 16.1867 66.3639 16.16C66.2506 16.1267 66.1339 16.11 66.0139 16.11C65.8539 16.11 65.7039 16.14 65.5639 16.2C65.4306 16.2533 65.3139 16.3333 65.2139 16.44C65.1139 16.54 65.0339 16.66 64.9739 16.8C64.9206 16.94 64.8939 17.0933 64.8939 17.26V20H63.4639ZM68.554 20V13.37H69.974V20H68.554ZM67.564 15.98V14.71H71.054V15.98H67.564ZM72.0995 20V14.71H73.5195V20H72.0995ZM72.7995 13.62C72.5262 13.62 72.3129 13.5533 72.1595 13.42C72.0062 13.2867 71.9295 13.0967 71.9295 12.85C71.9295 12.6233 72.0062 12.44 72.1595 12.3C72.3195 12.1533 72.5329 12.08 72.7995 12.08C73.0729 12.08 73.2862 12.15 73.4395 12.29C73.5929 12.4233 73.6695 12.61 73.6695 12.85C73.6695 13.0833 73.5895 13.27 73.4295 13.41C73.2762 13.55 73.0662 13.62 72.7995 13.62ZM75.4462 20V14.34C75.4462 14.0133 75.5195 13.7167 75.6662 13.45C75.8128 13.1833 76.0128 12.9733 76.2662 12.82C76.5262 12.6667 76.8295 12.59 77.1762 12.59C77.4095 12.59 77.6295 12.63 77.8362 12.71C78.0428 12.7833 78.2195 12.8867 78.3662 13.02L77.9462 14.06C77.8595 14.0067 77.7695 13.9633 77.6762 13.93C77.5895 13.89 77.5095 13.87 77.4362 13.87C77.3095 13.87 77.2028 13.8933 77.1162 13.94C77.0362 13.98 76.9762 14.0433 76.9362 14.13C76.8962 14.21 76.8762 14.3133 76.8762 14.44V20H76.1662C76.0128 20 75.8762 20 75.7562 20C75.6362 20 75.5328 20 75.4462 20ZM74.6562 16.04V14.84H78.0162V16.04H74.6562ZM79.0862 20V14.71H80.5062V20H79.0862ZM79.7862 13.62C79.5128 13.62 79.2995 13.5533 79.1462 13.42C78.9928 13.2867 78.9162 13.0967 78.9162 12.85C78.9162 12.6233 78.9928 12.44 79.1462 12.3C79.3062 12.1533 79.5195 12.08 79.7862 12.08C80.0595 12.08 80.2728 12.15 80.4262 12.29C80.5795 12.4233 80.6562 12.61 80.6562 12.85C80.6562 13.0833 80.5762 13.27 80.4162 13.41C80.2628 13.55 80.0528 13.62 79.7862 13.62ZM84.5384 20.1C83.965 20.1 83.465 19.9833 83.0384 19.75C82.6117 19.5167 82.2784 19.1967 82.0384 18.79C81.7984 18.3833 81.6784 17.9167 81.6784 17.39C81.6784 16.9833 81.745 16.61 81.8784 16.27C82.0117 15.93 82.1984 15.6367 82.4384 15.39C82.6784 15.1367 82.9617 14.9433 83.2884 14.81C83.6217 14.67 83.9817 14.6 84.3684 14.6C84.7284 14.6 85.0617 14.6667 85.3684 14.8C85.675 14.9267 85.9384 15.11 86.1584 15.35C86.385 15.5833 86.5584 15.86 86.6784 16.18C86.7984 16.5 86.8517 16.85 86.8384 17.23L86.8284 17.67H82.5784L82.3484 16.8H85.6584L85.4984 16.98V16.76C85.485 16.58 85.425 16.4167 85.3184 16.27C85.2184 16.1233 85.0884 16.01 84.9284 15.93C84.7684 15.85 84.5884 15.81 84.3884 15.81C84.095 15.81 83.845 15.8667 83.6384 15.98C83.4384 16.0933 83.285 16.26 83.1784 16.48C83.0717 16.7 83.0184 16.9667 83.0184 17.28C83.0184 17.6 83.085 17.8767 83.2184 18.11C83.3584 18.3433 83.5517 18.5267 83.7984 18.66C84.0517 18.7867 84.3484 18.85 84.6884 18.85C84.9217 18.85 85.135 18.8133 85.3284 18.74C85.5217 18.6667 85.7284 18.54 85.9484 18.36L86.6284 19.31C86.435 19.4833 86.2217 19.63 85.9884 19.75C85.755 19.8633 85.515 19.95 85.2684 20.01C85.0217 20.07 84.7784 20.1 84.5384 20.1ZM89.9577 20.1C89.4977 20.1 89.0844 19.9833 88.7177 19.75C88.3511 19.51 88.0611 19.1867 87.8477 18.78C87.6411 18.3667 87.5377 17.89 87.5377 17.35C87.5377 16.8233 87.6411 16.3533 87.8477 15.94C88.0611 15.5267 88.3477 15.2 88.7077 14.96C89.0744 14.72 89.4911 14.6 89.9577 14.6C90.2044 14.6 90.4411 14.64 90.6677 14.72C90.9011 14.7933 91.1077 14.8967 91.2877 15.03C91.4744 15.1633 91.6244 15.3133 91.7377 15.48C91.8511 15.64 91.9144 15.81 91.9277 15.99L91.5677 16.05V12.6H92.9877V20H91.6477L91.5877 18.78L91.8677 18.81C91.8544 18.9767 91.7944 19.1367 91.6877 19.29C91.5811 19.4433 91.4377 19.5833 91.2577 19.71C91.0844 19.83 90.8844 19.9267 90.6577 20C90.4377 20.0667 90.2044 20.1 89.9577 20.1ZM90.2777 18.92C90.5444 18.92 90.7777 18.8533 90.9777 18.72C91.1777 18.5867 91.3344 18.4033 91.4477 18.17C91.5611 17.9367 91.6177 17.6633 91.6177 17.35C91.6177 17.0433 91.5611 16.7733 91.4477 16.54C91.3344 16.3 91.1777 16.1167 90.9777 15.99C90.7777 15.8567 90.5444 15.79 90.2777 15.79C90.0111 15.79 89.7777 15.8567 89.5777 15.99C89.3844 16.1167 89.2311 16.3 89.1177 16.54C89.0111 16.7733 88.9577 17.0433 88.9577 17.35C88.9577 17.6633 89.0111 17.9367 89.1177 18.17C89.2311 18.4033 89.3844 18.5867 89.5777 18.72C89.7777 18.8533 90.0111 18.92 90.2777 18.92ZM50.91 33V26H52.25L56.12 31.23H55.84C55.8133 31.0233 55.79 30.8233 55.77 30.63C55.75 30.43 55.73 30.23 55.71 30.03C55.6967 29.8233 55.6833 29.6133 55.67 29.4C55.6633 29.18 55.6567 28.95 55.65 28.71C55.6433 28.4633 55.64 28.1967 55.64 27.91V26H57.11V33H55.75L51.8 27.72L52.18 27.73C52.2133 28.0767 52.24 28.3733 52.26 28.62C52.2867 28.86 52.3067 29.07 52.32 29.25C52.3333 29.43 52.3433 29.5867 52.35 29.72C52.3633 29.8533 52.37 29.98 52.37 30.1C52.3767 30.22 52.38 30.3467 52.38 30.48V33H50.91ZM61.1876 33.1C60.6476 33.1 60.1642 32.9833 59.7376 32.75C59.3176 32.51 58.9842 32.1833 58.7376 31.77C58.4976 31.3567 58.3776 30.8833 58.3776 30.35C58.3776 29.8167 58.4976 29.3467 58.7376 28.94C58.9842 28.5267 59.3176 28.2 59.7376 27.96C60.1642 27.72 60.6476 27.6 61.1876 27.6C61.7209 27.6 62.1976 27.72 62.6176 27.96C63.0442 28.2 63.3776 28.5267 63.6176 28.94C63.8576 29.3467 63.9776 29.8167 63.9776 30.35C63.9776 30.8833 63.8576 31.3567 63.6176 31.77C63.3776 32.1833 63.0442 32.51 62.6176 32.75C62.1976 32.9833 61.7209 33.1 61.1876 33.1ZM61.1876 31.86C61.4476 31.86 61.6809 31.7967 61.8876 31.67C62.0942 31.5367 62.2542 31.3567 62.3676 31.13C62.4876 30.8967 62.5476 30.6367 62.5476 30.35C62.5476 30.0567 62.4876 29.7967 62.3676 29.57C62.2542 29.3367 62.0942 29.1567 61.8876 29.03C61.6809 28.8967 61.4476 28.83 61.1876 28.83C60.9209 28.83 60.6842 28.8967 60.4776 29.03C60.2709 29.1633 60.1076 29.3433 59.9876 29.57C59.8676 29.7967 59.8109 30.0567 59.8176 30.35C59.8109 30.6367 59.8676 30.8967 59.9876 31.13C60.1076 31.3567 60.2709 31.5367 60.4776 31.67C60.6842 31.7967 60.9209 31.86 61.1876 31.86ZM67.1159 33.1C66.6559 33.1 66.2426 32.9833 65.8759 32.75C65.5093 32.51 65.2193 32.1867 65.0059 31.78C64.7993 31.3667 64.6959 30.89 64.6959 30.35C64.6959 29.8233 64.7993 29.3533 65.0059 28.94C65.2193 28.5267 65.5059 28.2 65.8659 27.96C66.2326 27.72 66.6493 27.6 67.1159 27.6C67.3626 27.6 67.5993 27.64 67.8259 27.72C68.0593 27.7933 68.2659 27.8967 68.4459 28.03C68.6326 28.1633 68.7826 28.3133 68.8959 28.48C69.0093 28.64 69.0726 28.81 69.0859 28.99L68.7259 29.05V25.6H70.1459V33H68.8059L68.7459 31.78L69.0259 31.81C69.0126 31.9767 68.9526 32.1367 68.8459 32.29C68.7393 32.4433 68.5959 32.5833 68.4159 32.71C68.2426 32.83 68.0426 32.9267 67.8159 33C67.5959 33.0667 67.3626 33.1 67.1159 33.1ZM67.4359 31.92C67.7026 31.92 67.9359 31.8533 68.1359 31.72C68.3359 31.5867 68.4926 31.4033 68.6059 31.17C68.7193 30.9367 68.7759 30.6633 68.7759 30.35C68.7759 30.0433 68.7193 29.7733 68.6059 29.54C68.4926 29.3 68.3359 29.1167 68.1359 28.99C67.9359 28.8567 67.7026 28.79 67.4359 28.79C67.1693 28.79 66.9359 28.8567 66.7359 28.99C66.5426 29.1167 66.3893 29.3 66.2759 29.54C66.1693 29.7733 66.1159 30.0433 66.1159 30.35C66.1159 30.6633 66.1693 30.9367 66.2759 31.17C66.3893 31.4033 66.5426 31.5867 66.7359 31.72C66.9359 31.8533 67.1693 31.92 67.4359 31.92ZM74.0403 33.1C73.467 33.1 72.967 32.9833 72.5403 32.75C72.1136 32.5167 71.7803 32.1967 71.5403 31.79C71.3003 31.3833 71.1803 30.9167 71.1803 30.39C71.1803 29.9833 71.247 29.61 71.3803 29.27C71.5136 28.93 71.7003 28.6367 71.9403 28.39C72.1803 28.1367 72.4636 27.9433 72.7903 27.81C73.1236 27.67 73.4836 27.6 73.8703 27.6C74.2303 27.6 74.5636 27.6667 74.8703 27.8C75.177 27.9267 75.4403 28.11 75.6603 28.35C75.887 28.5833 76.0603 28.86 76.1803 29.18C76.3003 29.5 76.3536 29.85 76.3403 30.23L76.3303 30.67H72.0803L71.8503 29.8H75.1603L75.0003 29.98V29.76C74.987 29.58 74.927 29.4167 74.8203 29.27C74.7203 29.1233 74.5903 29.01 74.4303 28.93C74.2703 28.85 74.0903 28.81 73.8903 28.81C73.597 28.81 73.347 28.8667 73.1403 28.98C72.9403 29.0933 72.787 29.26 72.6803 29.48C72.5736 29.7 72.5203 29.9667 72.5203 30.28C72.5203 30.6 72.587 30.8767 72.7203 31.11C72.8603 31.3433 73.0536 31.5267 73.3003 31.66C73.5536 31.7867 73.8503 31.85 74.1903 31.85C74.4236 31.85 74.637 31.8133 74.8303 31.74C75.0236 31.6667 75.2303 31.54 75.4503 31.36L76.1303 32.31C75.937 32.4833 75.7236 32.63 75.4903 32.75C75.257 32.8633 75.017 32.95 74.7703 33.01C74.5236 33.07 74.2803 33.1 74.0403 33.1ZM80.6561 33V26H83.5261C84.0394 26 84.5028 26.0867 84.9161 26.26C85.3361 26.4267 85.6961 26.6667 85.9961 26.98C86.3028 27.2867 86.5361 27.6533 86.6961 28.08C86.8561 28.5067 86.9361 28.98 86.9361 29.5C86.9361 30.0133 86.8561 30.4867 86.6961 30.92C86.5361 31.3467 86.3061 31.7167 86.0061 32.03C85.7061 32.3367 85.3461 32.5767 84.9261 32.75C84.5061 32.9167 84.0394 33 83.5261 33H80.6561ZM82.1561 31.91L81.9961 31.65H83.4761C83.7761 31.65 84.0461 31.6 84.2861 31.5C84.5261 31.3933 84.7294 31.25 84.8961 31.07C85.0694 30.8833 85.1994 30.6567 85.2861 30.39C85.3728 30.1233 85.4161 29.8267 85.4161 29.5C85.4161 29.1733 85.3728 28.88 85.2861 28.62C85.1994 28.3533 85.0694 28.1267 84.8961 27.94C84.7294 27.7533 84.5261 27.61 84.2861 27.51C84.0461 27.4033 83.7761 27.35 83.4761 27.35H81.9661L82.1561 27.11V31.91ZM90.6028 33.1C90.0295 33.1 89.5295 32.9833 89.1028 32.75C88.6761 32.5167 88.3428 32.1967 88.1028 31.79C87.8628 31.3833 87.7428 30.9167 87.7428 30.39C87.7428 29.9833 87.8095 29.61 87.9428 29.27C88.0761 28.93 88.2628 28.6367 88.5028 28.39C88.7428 28.1367 89.0261 27.9433 89.3528 27.81C89.6861 27.67 90.0461 27.6 90.4328 27.6C90.7928 27.6 91.1261 27.6667 91.4328 27.8C91.7395 27.9267 92.0028 28.11 92.2228 28.35C92.4495 28.5833 92.6228 28.86 92.7428 29.18C92.8628 29.5 92.9161 29.85 92.9028 30.23L92.8928 30.67H88.6428L88.4128 29.8H91.7228L91.5628 29.98V29.76C91.5495 29.58 91.4895 29.4167 91.3828 29.27C91.2828 29.1233 91.1528 29.01 90.9928 28.93C90.8328 28.85 90.6528 28.81 90.4528 28.81C90.1595 28.81 89.9095 28.8667 89.7028 28.98C89.5028 29.0933 89.3495 29.26 89.2428 29.48C89.1361 29.7 89.0828 29.9667 89.0828 30.28C89.0828 30.6 89.1495 30.8767 89.2828 31.11C89.4228 31.3433 89.6161 31.5267 89.8628 31.66C90.1161 31.7867 90.4128 31.85 90.7528 31.85C90.9861 31.85 91.1995 31.8133 91.3928 31.74C91.5861 31.6667 91.7928 31.54 92.0128 31.36L92.6928 32.31C92.4995 32.4833 92.2861 32.63 92.0528 32.75C91.8195 32.8633 91.5795 32.95 91.3328 33.01C91.0861 33.07 90.8428 33.1 90.6028 33.1ZM95.5145 33L93.2945 27.71H94.8545L96.2645 31.66L95.9345 31.72L97.4145 27.71H98.9345L96.6045 33H95.5145ZM102.165 33.1C101.592 33.1 101.092 32.9833 100.665 32.75C100.239 32.5167 99.9053 32.1967 99.6653 31.79C99.4253 31.3833 99.3053 30.9167 99.3053 30.39C99.3053 29.9833 99.372 29.61 99.5053 29.27C99.6386 28.93 99.8253 28.6367 100.065 28.39C100.305 28.1367 100.589 27.9433 100.915 27.81C101.249 27.67 101.609 27.6 101.995 27.6C102.355 27.6 102.689 27.6667 102.995 27.8C103.302 27.9267 103.565 28.11 103.785 28.35C104.012 28.5833 104.185 28.86 104.305 29.18C104.425 29.5 104.479 29.85 104.465 30.23L104.455 30.67H100.205L99.9753 29.8H103.285L103.125 29.98V29.76C103.112 29.58 103.052 29.4167 102.945 29.27C102.845 29.1233 102.715 29.01 102.555 28.93C102.395 28.85 102.215 28.81 102.015 28.81C101.722 28.81 101.472 28.8667 101.265 28.98C101.065 29.0933 100.912 29.26 100.805 29.48C100.699 29.7 100.645 29.9667 100.645 30.28C100.645 30.6 100.712 30.8767 100.845 31.11C100.985 31.3433 101.179 31.5267 101.425 31.66C101.679 31.7867 101.975 31.85 102.315 31.85C102.549 31.85 102.762 31.8133 102.955 31.74C103.149 31.6667 103.355 31.54 103.575 31.36L104.255 32.31C104.062 32.4833 103.849 32.63 103.615 32.75C103.382 32.8633 103.142 32.95 102.895 33.01C102.649 33.07 102.405 33.1 102.165 33.1ZM105.525 33V25.6H106.945V33H105.525ZM110.748 33.1C110.208 33.1 109.725 32.9833 109.298 32.75C108.878 32.51 108.545 32.1833 108.298 31.77C108.058 31.3567 107.938 30.8833 107.938 30.35C107.938 29.8167 108.058 29.3467 108.298 28.94C108.545 28.5267 108.878 28.2 109.298 27.96C109.725 27.72 110.208 27.6 110.748 27.6C111.281 27.6 111.758 27.72 112.178 27.96C112.605 28.2 112.938 28.5267 113.178 28.94C113.418 29.3467 113.538 29.8167 113.538 30.35C113.538 30.8833 113.418 31.3567 113.178 31.77C112.938 32.1833 112.605 32.51 112.178 32.75C111.758 32.9833 111.281 33.1 110.748 33.1ZM110.748 31.86C111.008 31.86 111.241 31.7967 111.448 31.67C111.655 31.5367 111.815 31.3567 111.928 31.13C112.048 30.8967 112.108 30.6367 112.108 30.35C112.108 30.0567 112.048 29.7967 111.928 29.57C111.815 29.3367 111.655 29.1567 111.448 29.03C111.241 28.8967 111.008 28.83 110.748 28.83C110.481 28.83 110.245 28.8967 110.038 29.03C109.831 29.1633 109.668 29.3433 109.548 29.57C109.428 29.7967 109.371 30.0567 109.378 30.35C109.371 30.6367 109.428 30.8967 109.548 31.13C109.668 31.3567 109.831 31.5367 110.038 31.67C110.245 31.7967 110.481 31.86 110.748 31.86ZM114.606 35.2V27.71H115.976L116.016 28.9L115.756 28.81C115.803 28.5967 115.916 28.4 116.096 28.22C116.283 28.04 116.513 27.8933 116.786 27.78C117.06 27.6667 117.346 27.61 117.646 27.61C118.106 27.61 118.513 27.73 118.866 27.97C119.226 28.2033 119.51 28.5267 119.716 28.94C119.93 29.3467 120.036 29.8167 120.036 30.35C120.036 30.8767 119.933 31.3467 119.726 31.76C119.52 32.1733 119.236 32.5 118.876 32.74C118.516 32.9733 118.106 33.09 117.646 33.09C117.34 33.09 117.046 33.0333 116.766 32.92C116.493 32.8 116.26 32.6433 116.066 32.45C115.873 32.2567 115.753 32.05 115.706 31.83L116.036 31.69V35.2H114.606ZM117.326 31.87C117.586 31.87 117.816 31.8067 118.016 31.68C118.216 31.5533 118.373 31.3767 118.486 31.15C118.6 30.9167 118.656 30.65 118.656 30.35C118.656 30.05 118.6 29.7867 118.486 29.56C118.373 29.3333 118.216 29.1567 118.016 29.03C117.823 28.9033 117.593 28.84 117.326 28.84C117.06 28.84 116.826 28.9033 116.626 29.03C116.426 29.15 116.27 29.3267 116.156 29.56C116.043 29.7867 115.986 30.05 115.986 30.35C115.986 30.65 116.043 30.9167 116.156 31.15C116.27 31.3767 116.426 31.5533 116.626 31.68C116.826 31.8067 117.06 31.87 117.326 31.87ZM123.62 33.1C123.047 33.1 122.547 32.9833 122.12 32.75C121.694 32.5167 121.36 32.1967 121.12 31.79C120.88 31.3833 120.76 30.9167 120.76 30.39C120.76 29.9833 120.827 29.61 120.96 29.27C121.094 28.93 121.28 28.6367 121.52 28.39C121.76 28.1367 122.044 27.9433 122.37 27.81C122.704 27.67 123.064 27.6 123.45 27.6C123.81 27.6 124.144 27.6667 124.45 27.8C124.757 27.9267 125.02 28.11 125.24 28.35C125.467 28.5833 125.64 28.86 125.76 29.18C125.88 29.5 125.934 29.85 125.92 30.23L125.91 30.67H121.66L121.43 29.8H124.74L124.58 29.98V29.76C124.567 29.58 124.507 29.4167 124.4 29.27C124.3 29.1233 124.17 29.01 124.01 28.93C123.85 28.85 123.67 28.81 123.47 28.81C123.177 28.81 122.927 28.8667 122.72 28.98C122.52 29.0933 122.367 29.26 122.26 29.48C122.154 29.7 122.1 29.9667 122.1 30.28C122.1 30.6 122.167 30.8767 122.3 31.11C122.44 31.3433 122.634 31.5267 122.88 31.66C123.134 31.7867 123.43 31.85 123.77 31.85C124.004 31.85 124.217 31.8133 124.41 31.74C124.604 31.6667 124.81 31.54 125.03 31.36L125.71 32.31C125.517 32.4833 125.304 32.63 125.07 32.75C124.837 32.8633 124.597 32.95 124.35 33.01C124.104 33.07 123.86 33.1 123.62 33.1ZM126.97 33V27.71H128.34L128.39 29.41L128.15 29.06C128.23 28.7867 128.36 28.54 128.54 28.32C128.72 28.0933 128.93 27.9167 129.17 27.79C129.416 27.6633 129.673 27.6 129.94 27.6C130.053 27.6 130.163 27.61 130.27 27.63C130.376 27.65 130.466 27.6733 130.54 27.7L130.16 29.26C130.08 29.22 129.983 29.1867 129.87 29.16C129.756 29.1267 129.64 29.11 129.52 29.11C129.36 29.11 129.21 29.14 129.07 29.2C128.936 29.2533 128.82 29.3333 128.72 29.44C128.62 29.54 128.54 29.66 128.48 29.8C128.426 29.94 128.4 30.0933 128.4 30.26V33H126.97ZM133.135 33.1C132.641 33.1 132.201 33.02 131.815 32.86C131.435 32.6933 131.128 32.4667 130.895 32.18L131.775 31.42C131.981 31.64 132.211 31.8 132.465 31.9C132.718 31.9933 132.971 32.04 133.225 32.04C133.325 32.04 133.415 32.03 133.495 32.01C133.581 31.9833 133.655 31.95 133.715 31.91C133.775 31.8633 133.818 31.81 133.845 31.75C133.878 31.6833 133.895 31.6133 133.895 31.54C133.895 31.3933 133.835 31.2767 133.715 31.19C133.648 31.1567 133.545 31.1167 133.405 31.07C133.265 31.0167 133.085 30.96 132.865 30.9C132.525 30.8133 132.235 30.7133 131.995 30.6C131.761 30.48 131.575 30.3467 131.435 30.2C131.315 30.06 131.221 29.91 131.155 29.75C131.095 29.5833 131.065 29.4 131.065 29.2C131.065 28.96 131.118 28.7433 131.225 28.55C131.331 28.35 131.478 28.18 131.665 28.04C131.858 27.9 132.078 27.7933 132.325 27.72C132.571 27.64 132.831 27.6 133.105 27.6C133.378 27.6 133.645 27.6333 133.905 27.7C134.165 27.7667 134.405 27.8633 134.625 27.99C134.851 28.11 135.048 28.2533 135.215 28.42L134.455 29.26C134.335 29.1467 134.198 29.0433 134.045 28.95C133.898 28.8567 133.745 28.7833 133.585 28.73C133.425 28.6767 133.281 28.65 133.155 28.65C133.041 28.65 132.938 28.66 132.845 28.68C132.758 28.7 132.685 28.73 132.625 28.77C132.565 28.81 132.518 28.8633 132.485 28.93C132.458 28.99 132.445 29.0567 132.445 29.13C132.445 29.2033 132.461 29.2733 132.495 29.34C132.535 29.4067 132.588 29.4633 132.655 29.51C132.728 29.55 132.835 29.5967 132.975 29.65C133.121 29.7033 133.318 29.7633 133.565 29.83C133.885 29.9167 134.155 30.0133 134.375 30.12C134.601 30.2267 134.781 30.35 134.915 30.49C135.028 30.61 135.111 30.7467 135.165 30.9C135.218 31.0533 135.245 31.2233 135.245 31.41C135.245 31.7367 135.151 32.03 134.965 32.29C134.785 32.5433 134.535 32.7433 134.215 32.89C133.895 33.03 133.535 33.1 133.135 33.1Z" fill="black"/>
</svg>
