<svg width="75" height="152" viewBox="0 0 75 152" fill="none" xmlns="http://www.w3.org/2000/svg">
<path d="M74.2324 152C64.8826 151.768 55.6602 149.81 47.0444 146.23C28.3062 138.455 13.4707 123.682 5.79621 105.154C-1.93226 86.4881 -1.93226 65.5883 5.79622 46.9221C9.59878 37.7083 15.2077 29.3208 22.3032 22.2383C36.0477 8.51119 54.6543 0.543048 74.2324 0L74.2324 38.5541C67.1231 38.9495 60.2717 41.3108 54.4658 45.3664C48.6599 49.4221 44.1354 55.0074 41.4126 61.4802C37.6124 70.6934 37.6124 81.0009 41.4126 90.2141C43.2862 94.7673 46.0584 98.9102 49.569 102.403C56.1147 108.953 64.9098 112.864 74.2324 113.369L74.2324 152Z" fill="#00BABA"/>
</svg>
